STARTFONT 2.1
FONT -DEC-MiriamFixed-Bold-R-Normal--8-80-75-75-M-50-ISO8859-8
SIZE 8 75 75
FONTBOUNDINGBOX 5 10 0 -2

STARTPROPERTIES 26
FONTNAME_REGISTRY ""
FAMILY_NAME "MiriamFixed"
FOUNDRY "DEC"
WEIGHT_NAME "Bold"
SLANT "R"
SETWIDTH_NAME "Normal"
ADD_STYLE_NAME ""
PIXEL_SIZE 8
RESOLUTION_X 75
RESOLUTION_Y 75
SPACING "M"
AVERAGE_WIDTH 50
CHARSET_REGISTRY "ISO8859"
CHARSET_ENCODING "8"
CHARSET_COLLECTIONS "ASCII ISO8859-8 "
FULL_NAME "MiriamFixed Bold"
COPYRIGHT "Digital Israel"
CAP_HEIGHT 6
X_HEIGHT 5
_DEC_DEVICE_FONTNAMES "PS=MiriamFixed-Bold-ISOLatinHebrew"
QUAD_WIDTH 5
POINT_SIZE 80
WEIGHT 10
DEFAULT_CHAR 0
FONT_DESCENT 2
FONT_ASCENT 8
ENDPROPERTIES

CHARS 152

STARTCHAR space
ENCODING 32
SWIDTH 600 0
DWIDTH 5 0
BBX 5 10 0 -2
BITMAP
00
00
00
00
00
00
00
00
00
00
ENDCHAR

STARTCHAR exclam
ENCODING 33
SWIDTH 600 0
DWIDTH 5 0
BBX 5 10 0 -2
BITMAP
00
00
00
60
60
60
60
00
60
00
ENDCHAR

STARTCHAR quotedbl
ENCODING 34
SWIDTH 600 0
DWIDTH 5 0
BBX 5 10 0 -2
BITMAP
00
00
00
00
50
50
00
00
00
00
ENDCHAR

STARTCHAR numbersign
ENCODING 35
SWIDTH 600 0
DWIDTH 5 0
BBX 5 10 0 -2
BITMAP
00
00
00
50
50
F0
50
F0
50
50
ENDCHAR

STARTCHAR dollar
ENCODING 36
SWIDTH 600 0
DWIDTH 5 0
BBX 5 10 0 -2
BITMAP
00
00
00
20
70
C0
70
90
E0
40
ENDCHAR

STARTCHAR percent
ENCODING 37
SWIDTH 600 0
DWIDTH 5 0
BBX 5 10 0 -2
BITMAP
00
00
00
C0
C8
30
60
98
18
00
ENDCHAR

STARTCHAR ampersand
ENCODING 38
SWIDTH 600 0
DWIDTH 5 0
BBX 5 10 0 -2
BITMAP
00
00
00
00
60
80
F0
A0
D0
00
ENDCHAR

STARTCHAR quoteright
ENCODING 39
SWIDTH 600 0
DWIDTH 5 0
BBX 5 10 0 -2
BITMAP
00
00
00
10
10
20
00
00
00
00
ENDCHAR

STARTCHAR parenleft
ENCODING 40
SWIDTH 600 0
DWIDTH 5 0
BBX 5 10 0 -2
BITMAP
00
00
00
20
40
40
40
40
20
20
ENDCHAR

STARTCHAR parenright
ENCODING 41
SWIDTH 600 0
DWIDTH 5 0
BBX 5 10 0 -2
BITMAP
00
00
00
40
20
20
20
20
40
40
ENDCHAR

STARTCHAR asterisk
ENCODING 42
SWIDTH 600 0
DWIDTH 5 0
BBX 5 10 0 -2
BITMAP
00
00
00
40
E0
A0
00
00
00
00
ENDCHAR

STARTCHAR plus
ENCODING 43
SWIDTH 600 0
DWIDTH 5 0
BBX 5 10 0 -2
BITMAP
00
00
00
00
40
40
F0
40
40
00
ENDCHAR

STARTCHAR comma
ENCODING 44
SWIDTH 600 0
DWIDTH 5 0
BBX 5 10 0 -2
BITMAP
00
00
00
00
00
00
00
00
20
60
ENDCHAR

STARTCHAR minus
ENCODING 45
SWIDTH 600 0
DWIDTH 5 0
BBX 5 10 0 -2
BITMAP
00
00
00
00
00
00
F0
00
00
00
ENDCHAR

STARTCHAR period
ENCODING 46
SWIDTH 600 0
DWIDTH 5 0
BBX 5 10 0 -2
BITMAP
00
00
00
00
00
00
00
00
60
00
ENDCHAR

STARTCHAR slash
ENCODING 47
SWIDTH 600 0
DWIDTH 5 0
BBX 5 10 0 -2
BITMAP
00
00
10
20
20
40
40
80
80
00
ENDCHAR

STARTCHAR zero
ENCODING 48
SWIDTH 600 0
DWIDTH 5 0
BBX 5 10 0 -2
BITMAP
00
00
00
60
D0
D0
D0
D0
60
00
ENDCHAR

STARTCHAR one
ENCODING 49
SWIDTH 600 0
DWIDTH 5 0
BBX 5 10 0 -2
BITMAP
00
00
00
20
E0
20
20
20
F0
00
ENDCHAR

STARTCHAR two
ENCODING 50
SWIDTH 600 0
DWIDTH 5 0
BBX 5 10 0 -2
BITMAP
00
00
00
F0
90
30
60
C0
F0
00
ENDCHAR

STARTCHAR three
ENCODING 51
SWIDTH 600 0
DWIDTH 5 0
BBX 5 10 0 -2
BITMAP
00
00
00
F0
10
70
10
D0
E0
00
ENDCHAR

STARTCHAR four
ENCODING 52
SWIDTH 600 0
DWIDTH 5 0
BBX 5 10 0 -2
BITMAP
00
00
00
30
70
D0
F8
10
10
00
ENDCHAR

STARTCHAR five
ENCODING 53
SWIDTH 600 0
DWIDTH 5 0
BBX 5 10 0 -2
BITMAP
00
00
00
F0
C0
F0
10
D0
E0
00
ENDCHAR

STARTCHAR six
ENCODING 54
SWIDTH 600 0
DWIDTH 5 0
BBX 5 10 0 -2
BITMAP
00
00
00
70
C0
E0
D0
D0
60
00
ENDCHAR

STARTCHAR seven
ENCODING 55
SWIDTH 600 0
DWIDTH 5 0
BBX 5 10 0 -2
BITMAP
00
00
00
F0
90
30
60
40
40
00
ENDCHAR

STARTCHAR eight
ENCODING 56
SWIDTH 600 0
DWIDTH 5 0
BBX 5 10 0 -2
BITMAP
00
00
00
60
D0
60
D0
D0
60
00
ENDCHAR

STARTCHAR nine
ENCODING 57
SWIDTH 600 0
DWIDTH 5 0
BBX 5 10 0 -2
BITMAP
00
00
00
60
D0
D0
70
10
E0
00
ENDCHAR

STARTCHAR colon
ENCODING 58
SWIDTH 600 0
DWIDTH 5 0
BBX 5 10 0 -2
BITMAP
00
00
00
00
00
60
00
00
60
00
ENDCHAR

STARTCHAR semicolon
ENCODING 59
SWIDTH 600 0
DWIDTH 5 0
BBX 5 10 0 -2
BITMAP
00
00
00
00
00
C0
00
00
40
C0
ENDCHAR

STARTCHAR less
ENCODING 60
SWIDTH 600 0
DWIDTH 5 0
BBX 5 10 0 -2
BITMAP
00
00
00
00
20
40
80
40
20
00
ENDCHAR

STARTCHAR equal
ENCODING 61
SWIDTH 600 0
DWIDTH 5 0
BBX 5 10 0 -2
BITMAP
00
00
00
00
00
F0
00
F0
00
00
ENDCHAR

STARTCHAR greater
ENCODING 62
SWIDTH 600 0
DWIDTH 5 0
BBX 5 10 0 -2
BITMAP
00
00
00
00
40
20
10
20
40
00
ENDCHAR

STARTCHAR question
ENCODING 63
SWIDTH 600 0
DWIDTH 5 0
BBX 5 10 0 -2
BITMAP
00
00
00
60
B0
30
60
00
60
00
ENDCHAR

STARTCHAR at
ENCODING 64
SWIDTH 600 0
DWIDTH 5 0
BBX 5 10 0 -2
BITMAP
00
00
00
70
90
B0
B8
80
70
00
ENDCHAR

STARTCHAR A
ENCODING 65
SWIDTH 600 0
DWIDTH 5 0
BBX 5 10 0 -2
BITMAP
00
00
00
00
F0
50
70
50
D0
00
ENDCHAR

STARTCHAR B
ENCODING 66
SWIDTH 600 0
DWIDTH 5 0
BBX 5 10 0 -2
BITMAP
00
00
00
00
F0
50
70
50
F0
00
ENDCHAR

STARTCHAR C
ENCODING 67
SWIDTH 600 0
DWIDTH 5 0
BBX 5 10 0 -2
BITMAP
00
00
00
00
70
D0
C0
D0
60
00
ENDCHAR

STARTCHAR D
ENCODING 68
SWIDTH 600 0
DWIDTH 5 0
BBX 5 10 0 -2
BITMAP
00
00
00
00
F0
50
50
50
F0
00
ENDCHAR

STARTCHAR E
ENCODING 69
SWIDTH 600 0
DWIDTH 5 0
BBX 5 10 0 -2
BITMAP
00
00
00
00
F0
50
60
50
F0
00
ENDCHAR

STARTCHAR F
ENCODING 70
SWIDTH 600 0
DWIDTH 5 0
BBX 5 10 0 -2
BITMAP
00
00
00
00
F0
50
60
40
E0
00
ENDCHAR

STARTCHAR G
ENCODING 71
SWIDTH 600 0
DWIDTH 5 0
BBX 5 10 0 -2
BITMAP
00
00
00
00
70
C0
D0
D0
70
00
ENDCHAR

STARTCHAR H
ENCODING 72
SWIDTH 600 0
DWIDTH 5 0
BBX 5 10 0 -2
BITMAP
00
00
00
00
D0
50
70
50
D0
00
ENDCHAR

STARTCHAR I
ENCODING 73
SWIDTH 600 0
DWIDTH 5 0
BBX 5 10 0 -2
BITMAP
00
00
00
00
70
20
20
20
70
00
ENDCHAR

STARTCHAR J
ENCODING 74
SWIDTH 600 0
DWIDTH 5 0
BBX 5 10 0 -2
BITMAP
00
00
00
00
30
10
10
90
60
00
ENDCHAR

STARTCHAR K
ENCODING 75
SWIDTH 600 0
DWIDTH 5 0
BBX 5 10 0 -2
BITMAP
00
00
00
00
D0
70
60
50
D0
00
ENDCHAR

STARTCHAR L
ENCODING 76
SWIDTH 600 0
DWIDTH 5 0
BBX 5 10 0 -2
BITMAP
00
00
00
00
E0
40
40
50
F0
00
ENDCHAR

STARTCHAR M
ENCODING 77
SWIDTH 600 0
DWIDTH 5 0
BBX 5 10 0 -2
BITMAP
00
00
00
00
C8
78
78
68
C8
00
ENDCHAR

STARTCHAR N
ENCODING 78
SWIDTH 600 0
DWIDTH 5 0
BBX 5 10 0 -2
BITMAP
00
00
00
00
D0
70
70
50
D0
00
ENDCHAR

STARTCHAR O
ENCODING 79
SWIDTH 600 0
DWIDTH 5 0
BBX 5 10 0 -2
BITMAP
00
00
00
00
60
D0
D0
D0
60
00
ENDCHAR

STARTCHAR P
ENCODING 80
SWIDTH 600 0
DWIDTH 5 0
BBX 5 10 0 -2
BITMAP
00
00
00
00
F0
50
70
40
E0
00
ENDCHAR

STARTCHAR Q
ENCODING 81
SWIDTH 600 0
DWIDTH 5 0
BBX 5 10 0 -2
BITMAP
00
00
00
00
60
D0
D0
D0
78
00
ENDCHAR

STARTCHAR R
ENCODING 82
SWIDTH 600 0
DWIDTH 5 0
BBX 5 10 0 -2
BITMAP
00
00
00
00
F0
50
70
50
C8
00
ENDCHAR

STARTCHAR S
ENCODING 83
SWIDTH 600 0
DWIDTH 5 0
BBX 5 10 0 -2
BITMAP
00
00
00
00
70
D0
60
B0
E0
00
ENDCHAR

STARTCHAR T
ENCODING 84
SWIDTH 600 0
DWIDTH 5 0
BBX 5 10 0 -2
BITMAP
00
00
00
00
F8
A8
20
20
70
00
ENDCHAR

STARTCHAR U
ENCODING 85
SWIDTH 600 0
DWIDTH 5 0
BBX 5 10 0 -2
BITMAP
00
00
00
00
D0
50
50
50
70
00
ENDCHAR

STARTCHAR V
ENCODING 86
SWIDTH 600 0
DWIDTH 5 0
BBX 5 10 0 -2
BITMAP
00
00
00
00
D0
50
50
70
20
00
ENDCHAR

STARTCHAR W
ENCODING 87
SWIDTH 600 0
DWIDTH 5 0
BBX 5 10 0 -2
BITMAP
00
00
00
00
88
A8
A8
A8
50
00
ENDCHAR

STARTCHAR X
ENCODING 88
SWIDTH 600 0
DWIDTH 5 0
BBX 5 10 0 -2
BITMAP
00
00
00
00
D0
70
20
70
D8
00
ENDCHAR

STARTCHAR Y
ENCODING 89
SWIDTH 600 0
DWIDTH 5 0
BBX 5 10 0 -2
BITMAP
00
00
00
00
D8
70
20
20
70
00
ENDCHAR

STARTCHAR Z
ENCODING 90
SWIDTH 600 0
DWIDTH 5 0
BBX 5 10 0 -2
BITMAP
00
00
00
00
F0
B0
60
D0
F0
00
ENDCHAR

STARTCHAR bracketleft
ENCODING 91
SWIDTH 600 0
DWIDTH 5 0
BBX 5 10 0 -2
BITMAP
00
00
00
60
40
40
40
40
40
60
ENDCHAR

STARTCHAR backslash
ENCODING 92
SWIDTH 600 0
DWIDTH 5 0
BBX 5 10 0 -2
BITMAP
00
00
80
80
40
40
40
20
20
00
ENDCHAR

STARTCHAR bracketright
ENCODING 93
SWIDTH 600 0
DWIDTH 5 0
BBX 5 10 0 -2
BITMAP
00
00
00
60
20
20
20
20
20
60
ENDCHAR

STARTCHAR asciicircum
ENCODING 94
SWIDTH 600 0
DWIDTH 5 0
BBX 5 10 0 -2
BITMAP
00
00
00
20
70
D8
00
00
00
00
ENDCHAR

STARTCHAR underscore
ENCODING 95
SWIDTH 600 0
DWIDTH 5 0
BBX 5 10 0 -2
BITMAP
00
00
00
00
00
00
00
00
00
F0
ENDCHAR

STARTCHAR quoteleft
ENCODING 96
SWIDTH 600 0
DWIDTH 5 0
BBX 5 10 0 -2
BITMAP
00
00
00
20
40
60
00
00
00
00
ENDCHAR

STARTCHAR a
ENCODING 97
SWIDTH 600 0
DWIDTH 5 0
BBX 5 10 0 -2
BITMAP
00
00
00
00
00
E0
70
B0
D0
00
ENDCHAR

STARTCHAR b
ENCODING 98
SWIDTH 600 0
DWIDTH 5 0
BBX 5 10 0 -2
BITMAP
00
00
00
C0
40
70
50
50
F0
00
ENDCHAR

STARTCHAR c
ENCODING 99
SWIDTH 600 0
DWIDTH 5 0
BBX 5 10 0 -2
BITMAP
00
00
00
00
00
70
C0
D0
60
00
ENDCHAR

STARTCHAR d
ENCODING 100
SWIDTH 600 0
DWIDTH 5 0
BBX 5 10 0 -2
BITMAP
00
00
00
30
10
70
D0
D0
78
00
ENDCHAR

STARTCHAR e
ENCODING 101
SWIDTH 600 0
DWIDTH 5 0
BBX 5 10 0 -2
BITMAP
00
00
00
00
00
70
F0
C0
70
00
ENDCHAR

STARTCHAR f
ENCODING 102
SWIDTH 600 0
DWIDTH 5 0
BBX 5 10 0 -2
BITMAP
00
00
00
38
20
70
20
20
70
00
ENDCHAR

STARTCHAR g
ENCODING 103
SWIDTH 600 0
DWIDTH 5 0
BBX 5 10 0 -2
BITMAP
00
00
00
00
00
70
D0
50
30
E0
ENDCHAR

STARTCHAR h
ENCODING 104
SWIDTH 600 0
DWIDTH 5 0
BBX 5 10 0 -2
BITMAP
00
00
00
C0
40
70
50
50
D0
00
ENDCHAR

STARTCHAR i
ENCODING 105
SWIDTH 600 0
DWIDTH 5 0
BBX 5 10 0 -2
BITMAP
00
00
00
60
00
60
20
20
70
00
ENDCHAR

STARTCHAR j
ENCODING 106
SWIDTH 600 0
DWIDTH 5 0
BBX 5 10 0 -2
BITMAP
00
00
00
60
00
E0
20
20
60
C0
ENDCHAR

STARTCHAR k
ENCODING 107
SWIDTH 600 0
DWIDTH 5 0
BBX 5 10 0 -2
BITMAP
00
00
00
C0
40
50
60
70
48
00
ENDCHAR

STARTCHAR l
ENCODING 108
SWIDTH 600 0
DWIDTH 5 0
BBX 5 10 0 -2
BITMAP
00
00
00
60
20
20
20
20
70
00
ENDCHAR

STARTCHAR m
ENCODING 109
SWIDTH 600 0
DWIDTH 5 0
BBX 5 10 0 -2
BITMAP
00
00
00
00
00
F0
A8
A8
A8
00
ENDCHAR

STARTCHAR n
ENCODING 110
SWIDTH 600 0
DWIDTH 5 0
BBX 5 10 0 -2
BITMAP
00
00
00
00
00
F0
50
50
D0
00
ENDCHAR

STARTCHAR o
ENCODING 111
SWIDTH 600 0
DWIDTH 5 0
BBX 5 10 0 -2
BITMAP
00
00
00
00
00
60
D0
D0
60
00
ENDCHAR

STARTCHAR p
ENCODING 112
SWIDTH 600 0
DWIDTH 5 0
BBX 5 10 0 -2
BITMAP
00
00
00
00
00
E0
50
50
60
E0
ENDCHAR

STARTCHAR q
ENCODING 113
SWIDTH 600 0
DWIDTH 5 0
BBX 5 10 0 -2
BITMAP
00
00
00
00
00
70
D0
50
30
78
ENDCHAR

STARTCHAR r
ENCODING 114
SWIDTH 600 0
DWIDTH 5 0
BBX 5 10 0 -2
BITMAP
00
00
00
00
00
F0
50
40
E0
00
ENDCHAR

STARTCHAR s
ENCODING 115
SWIDTH 600 0
DWIDTH 5 0
BBX 5 10 0 -2
BITMAP
00
00
00
00
00
70
E0
10
E0
00
ENDCHAR

STARTCHAR t
ENCODING 116
SWIDTH 600 0
DWIDTH 5 0
BBX 5 10 0 -2
BITMAP
00
00
00
40
40
F0
40
40
70
00
ENDCHAR

STARTCHAR u
ENCODING 117
SWIDTH 600 0
DWIDTH 5 0
BBX 5 10 0 -2
BITMAP
00
00
00
00
00
D0
50
50
78
00
ENDCHAR

STARTCHAR v
ENCODING 118
SWIDTH 600 0
DWIDTH 5 0
BBX 5 10 0 -2
BITMAP
00
00
00
00
00
D0
50
70
20
00
ENDCHAR

STARTCHAR w
ENCODING 119
SWIDTH 600 0
DWIDTH 5 0
BBX 5 10 0 -2
BITMAP
00
00
00
00
00
88
A8
F8
50
00
ENDCHAR

STARTCHAR x
ENCODING 120
SWIDTH 600 0
DWIDTH 5 0
BBX 5 10 0 -2
BITMAP
00
00
00
00
00
D0
60
60
D0
00
ENDCHAR

STARTCHAR y
ENCODING 121
SWIDTH 600 0
DWIDTH 5 0
BBX 5 10 0 -2
BITMAP
00
00
00
00
00
D0
50
70
30
E0
ENDCHAR

STARTCHAR z
ENCODING 122
SWIDTH 600 0
DWIDTH 5 0
BBX 5 10 0 -2
BITMAP
00
00
00
00
00
F0
A0
50
F0
00
ENDCHAR

STARTCHAR braceleft
ENCODING 123
SWIDTH 600 0
DWIDTH 5 0
BBX 5 10 0 -2
BITMAP
00
00
00
30
20
20
40
20
20
30
ENDCHAR

STARTCHAR bar
ENCODING 124
SWIDTH 600 0
DWIDTH 5 0
BBX 5 10 0 -2
BITMAP
00
00
00
60
60
60
60
60
60
60
ENDCHAR

STARTCHAR braceright
ENCODING 125
SWIDTH 600 0
DWIDTH 5 0
BBX 5 10 0 -2
BITMAP
00
00
00
60
20
20
10
20
20
60
ENDCHAR

STARTCHAR asciitilde
ENCODING 126
SWIDTH 600 0
DWIDTH 5 0
BBX 5 10 0 -2
BITMAP
00
00
00
00
50
A0
00
00
00
00
ENDCHAR

STARTCHAR cent
ENCODING 162
SWIDTH 600 0
DWIDTH 5 0
BBX 5 10 0 -2
BITMAP
00
00
00
20
20
70
E0
70
20
20
ENDCHAR

STARTCHAR sterling
ENCODING 163
SWIDTH 600 0
DWIDTH 5 0
BBX 5 10 0 -2
BITMAP
00
00
00
30
40
E0
40
50
E0
00
ENDCHAR

STARTCHAR currency
ENCODING 164
SWIDTH 600 0
DWIDTH 5 0
BBX 5 10 0 -2
BITMAP
00
00
00
00
90
60
60
90
00
00
ENDCHAR

STARTCHAR yen
ENCODING 165
SWIDTH 600 0
DWIDTH 5 0
BBX 5 10 0 -2
BITMAP
00
00
00
00
D8
70
F8
20
70
00
ENDCHAR

STARTCHAR brokenbar
ENCODING 166
SWIDTH 600 0
DWIDTH 5 0
BBX 5 10 0 -2
BITMAP
00
00
00
60
60
60
00
60
60
60
ENDCHAR

STARTCHAR section
ENCODING 167
SWIDTH 600 0
DWIDTH 5 0
BBX 5 10 0 -2
BITMAP
00
00
00
30
40
60
50
30
10
60
ENDCHAR

STARTCHAR dieresis
ENCODING 168
SWIDTH 600 0
DWIDTH 5 0
BBX 5 10 0 -2
BITMAP
00
00
00
50
00
00
00
00
00
00
ENDCHAR

STARTCHAR copyright
ENCODING 169
SWIDTH 600 0
DWIDTH 5 0
BBX 5 10 0 -2
BITMAP
00
00
00
70
88
B8
E8
B8
88
70
ENDCHAR

STARTCHAR multiply
ENCODING 170
SWIDTH 600 0
DWIDTH 5 0
BBX 5 10 0 -2
BITMAP
00
00
00
00
90
60
60
90
00
00
ENDCHAR

STARTCHAR guillemotleft
ENCODING 171
SWIDTH 600 0
DWIDTH 5 0
BBX 5 10 0 -2
BITMAP
00
00
00
00
00
50
A0
50
00
00
ENDCHAR

STARTCHAR logicalnot
ENCODING 172
SWIDTH 600 0
DWIDTH 5 0
BBX 5 10 0 -2
BITMAP
00
00
00
00
00
F0
10
00
00
00
ENDCHAR

STARTCHAR hyphen
ENCODING 173
SWIDTH 600 0
DWIDTH 5 0
BBX 5 10 0 -2
BITMAP
00
00
00
00
00
F0
00
00
00
00
ENDCHAR

STARTCHAR registered
ENCODING 174
SWIDTH 600 0
DWIDTH 5 0
BBX 5 10 0 -2
BITMAP
00
00
00
70
88
E8
E8
D8
88
70
ENDCHAR

STARTCHAR macron
ENCODING 175
SWIDTH 600 0
DWIDTH 5 0
BBX 5 10 0 -2
BITMAP
00
00
00
E0
00
00
00
00
00
00
ENDCHAR

STARTCHAR degree
ENCODING 176
SWIDTH 600 0
DWIDTH 5 0
BBX 5 10 0 -2
BITMAP
00
00
00
40
A0
40
00
00
00
00
ENDCHAR

STARTCHAR plusminus
ENCODING 177
SWIDTH 600 0
DWIDTH 5 0
BBX 5 10 0 -2
BITMAP
00
00
00
00
40
F0
40
00
F0
00
ENDCHAR

STARTCHAR twosuperior
ENCODING 178
SWIDTH 600 0
DWIDTH 5 0
BBX 5 10 0 -2
BITMAP
00
00
00
60
10
20
70
00
00
00
ENDCHAR

STARTCHAR threesuperior
ENCODING 179
SWIDTH 600 0
DWIDTH 5 0
BBX 5 10 0 -2
BITMAP
00
00
00
60
30
10
60
00
00
00
ENDCHAR

STARTCHAR acute
ENCODING 180
SWIDTH 600 0
DWIDTH 5 0
BBX 5 10 0 -2
BITMAP
00
00
08
10
00
00
00
00
00
00
ENDCHAR

STARTCHAR mu
ENCODING 181
SWIDTH 600 0
DWIDTH 5 0
BBX 5 10 0 -2
BITMAP
00
00
00
00
00
D0
50
50
78
40
ENDCHAR

STARTCHAR paragraph
ENCODING 182
SWIDTH 600 0
DWIDTH 5 0
BBX 5 10 0 -2
BITMAP
00
00
00
70
D0
D0
50
50
50
50
ENDCHAR

STARTCHAR periodcentered
ENCODING 183
SWIDTH 600 0
DWIDTH 5 0
BBX 5 10 0 -2
BITMAP
00
00
00
00
00
30
00
00
00
00
ENDCHAR

STARTCHAR cedilla
ENCODING 184
SWIDTH 600 0
DWIDTH 5 0
BBX 5 10 0 -2
BITMAP
00
00
00
00
00
00
00
00
20
60
ENDCHAR

STARTCHAR onesuperior
ENCODING 185
SWIDTH 600 0
DWIDTH 5 0
BBX 5 10 0 -2
BITMAP
00
00
00
60
20
20
70
00
00
00
ENDCHAR

STARTCHAR divide
ENCODING 186
SWIDTH 600 0
DWIDTH 5 0
BBX 5 10 0 -2
BITMAP
00
00
00
00
40
00
F0
00
40
00
ENDCHAR

STARTCHAR guillemotright
ENCODING 187
SWIDTH 600 0
DWIDTH 5 0
BBX 5 10 0 -2
BITMAP
00
00
00
00
00
A0
50
A0
00
00
ENDCHAR

STARTCHAR onequarter
ENCODING 188
SWIDTH 600 0
DWIDTH 5 0
BBX 5 10 0 -2
BITMAP
00
00
00
C0
48
50
28
58
B8
08
ENDCHAR

STARTCHAR onehalf
ENCODING 189
SWIDTH 600 0
DWIDTH 5 0
BBX 5 10 0 -2
BITMAP
00
00
00
C0
48
50
20
70
90
38
ENDCHAR

STARTCHAR threequarters
ENCODING 190
SWIDTH 600 0
DWIDTH 5 0
BBX 5 10 0 -2
BITMAP
00
00
00
C0
68
30
E8
58
B8
08
ENDCHAR

STARTCHAR dblunderscore
ENCODING 223
SWIDTH 600 0
DWIDTH 5 0
BBX 5 10 0 -2
BITMAP
00
00
00
00
00
00
00
F8
00
F8
ENDCHAR

STARTCHAR aleph
ENCODING 224
SWIDTH 600 0
DWIDTH 5 0
BBX 5 10 0 -2
BITMAP
00
00
00
00
B0
70
E0
D0
00
00
ENDCHAR

STARTCHAR beth
ENCODING 225
SWIDTH 600 0
DWIDTH 5 0
BBX 5 10 0 -2
BITMAP
00
00
00
00
E0
E0
20
F0
00
00
ENDCHAR

STARTCHAR gimmel
ENCODING 226
SWIDTH 600 0
DWIDTH 5 0
BBX 5 10 0 -2
BITMAP
00
00
00
00
70
70
30
D0
00
00
ENDCHAR

STARTCHAR daleth
ENCODING 227
SWIDTH 600 0
DWIDTH 5 0
BBX 5 10 0 -2
BITMAP
00
00
00
00
F0
F0
20
20
00
00
ENDCHAR

STARTCHAR he
ENCODING 228
SWIDTH 600 0
DWIDTH 5 0
BBX 5 10 0 -2
BITMAP
00
00
00
00
F0
30
B0
B0
00
00
ENDCHAR

STARTCHAR waw
ENCODING 229
SWIDTH 600 0
DWIDTH 5 0
BBX 5 10 0 -2
BITMAP
00
00
00
00
60
60
20
20
00
00
ENDCHAR

STARTCHAR zayin
ENCODING 230
SWIDTH 600 0
DWIDTH 5 0
BBX 5 10 0 -2
BITMAP
00
00
00
00
70
70
20
20
00
00
ENDCHAR

STARTCHAR het
ENCODING 231
SWIDTH 600 0
DWIDTH 5 0
BBX 5 10 0 -2
BITMAP
00
00
00
00
F0
F0
B0
B0
00
00
ENDCHAR

STARTCHAR teth
ENCODING 232
SWIDTH 600 0
DWIDTH 5 0
BBX 5 10 0 -2
BITMAP
00
00
00
00
B0
F0
B0
F0
00
00
ENDCHAR

STARTCHAR yod
ENCODING 233
SWIDTH 600 0
DWIDTH 5 0
BBX 5 10 0 -2
BITMAP
00
00
00
00
E0
E0
60
00
00
00
ENDCHAR

STARTCHAR kaphfinal
ENCODING 234
SWIDTH 600 0
DWIDTH 5 0
BBX 5 10 0 -2
BITMAP
00
00
00
00
F0
F0
20
30
30
00
ENDCHAR

STARTCHAR kaph
ENCODING 235
SWIDTH 600 0
DWIDTH 5 0
BBX 5 10 0 -2
BITMAP
00
00
00
00
E0
30
30
E0
00
00
ENDCHAR

STARTCHAR lamed
ENCODING 236
SWIDTH 600 0
DWIDTH 5 0
BBX 5 10 0 -2
BITMAP
00
00
80
80
F0
F0
20
70
00
00
ENDCHAR

STARTCHAR memfinal
ENCODING 237
SWIDTH 600 0
DWIDTH 5 0
BBX 5 10 0 -2
BITMAP
00
00
00
00
F0
F0
B0
F0
00
00
ENDCHAR

STARTCHAR mem
ENCODING 238
SWIDTH 600 0
DWIDTH 5 0
BBX 5 10 0 -2
BITMAP
00
00
00
00
B0
F0
D0
B0
00
00
ENDCHAR

STARTCHAR nunfinal
ENCODING 239
SWIDTH 600 0
DWIDTH 5 0
BBX 5 10 0 -2
BITMAP
00
00
00
00
30
30
10
10
10
00
ENDCHAR

STARTCHAR nun
ENCODING 240
SWIDTH 600 0
DWIDTH 5 0
BBX 5 10 0 -2
BITMAP
00
00
00
00
30
30
10
70
00
00
ENDCHAR

STARTCHAR samekh
ENCODING 241
SWIDTH 600 0
DWIDTH 5 0
BBX 5 10 0 -2
BITMAP
00
00
00
00
F0
F0
90
60
00
00
ENDCHAR

STARTCHAR ayin
ENCODING 242
SWIDTH 600 0
DWIDTH 5 0
BBX 5 10 0 -2
BITMAP
00
00
00
00
D0
D0
50
F0
00
00
ENDCHAR

STARTCHAR pefinal
ENCODING 243
SWIDTH 600 0
DWIDTH 5 0
BBX 5 10 0 -2
BITMAP
00
00
00
00
F0
F0
90
D0
10
00
ENDCHAR

STARTCHAR pe
ENCODING 244
SWIDTH 600 0
DWIDTH 5 0
BBX 5 10 0 -2
BITMAP
00
00
00
00
F0
D0
10
F0
00
00
ENDCHAR

STARTCHAR zadikfinal
ENCODING 245
SWIDTH 600 0
DWIDTH 5 0
BBX 5 10 0 -2
BITMAP
00
00
00
00
D0
D0
60
40
60
00
ENDCHAR

STARTCHAR zadik
ENCODING 246
SWIDTH 600 0
DWIDTH 5 0
BBX 5 10 0 -2
BITMAP
00
00
00
00
B0
70
20
F0
00
00
ENDCHAR

STARTCHAR kof
ENCODING 247
SWIDTH 600 0
DWIDTH 5 0
BBX 5 10 0 -2
BITMAP
00
00
00
00
F0
30
A0
B0
80
00
ENDCHAR

STARTCHAR resh
ENCODING 248
SWIDTH 600 0
DWIDTH 5 0
BBX 5 10 0 -2
BITMAP
00
00
00
00
70
70
10
10
00
00
ENDCHAR

STARTCHAR shin
ENCODING 249
SWIDTH 600 0
DWIDTH 5 0
BBX 5 10 0 -2
BITMAP
00
00
00
00
A8
A8
F8
F8
00
00
ENDCHAR

STARTCHAR taf
ENCODING 250
SWIDTH 600 0
DWIDTH 5 0
BBX 5 10 0 -2
BITMAP
00
00
00
00
F0
F0
50
D0
00
00
ENDCHAR
ENDFONT
